<svg preserveAspectRatio="none" width="100%" height="100%" overflow="visible" style="display: block;" viewBox="0 0 16.5478 18.3333" fill="none" xmlns="http://www.w3.org/2000/svg">
<g id="Union">
<path d="M8.27397 13.3333C9.65469 13.3334 10.774 14.4526 10.774 15.8333C10.774 17.2141 9.65469 18.3333 8.27397 18.3333C6.89322 18.3333 5.77397 17.2141 5.77397 15.8333C5.77397 14.4526 6.89322 13.3333 8.27397 13.3333Z" fill="var(--fill-0, #9CA8AB)"/>
<path d="M1.25004 10.3353C2.44578 9.64495 3.97521 10.0543 4.66557 11.25C5.3559 12.4457 4.94577 13.9744 3.75004 14.6647C2.55433 15.355 1.02566 14.9457 0.335331 13.75C-0.354933 12.5544 0.0546384 11.0258 1.25004 10.3353Z" fill="var(--fill-0, #9CA8AB)"/>
<path d="M11.8824 11.25C12.5727 10.0543 14.1014 9.64503 15.2971 10.3353C16.4928 11.0256 16.9029 12.5543 16.2126 13.75C15.5223 14.9458 13.9928 15.355 12.7971 14.6647C11.6017 13.9742 11.192 12.4456 11.8824 11.25Z" fill="var(--fill-0, #9CA8AB)"/>
<path d="M8.27397 6.66667C9.65469 6.6667 10.774 7.78594 10.774 9.16667C10.774 10.5474 9.65469 11.6666 8.27397 11.6667C6.89322 11.6667 5.77397 10.5474 5.77397 9.16667C5.77397 7.78592 6.89322 6.66667 8.27397 6.66667Z" fill="var(--fill-0, #9CA8AB)"/>
<path d="M0.335331 4.58333C1.02567 3.38764 2.55433 2.97836 3.75004 3.66862C4.94576 4.35896 5.35588 5.88761 4.66557 7.08333C3.97521 8.27909 2.44578 8.68838 1.25004 7.99805C0.0546458 7.30754 -0.354936 5.77892 0.335331 4.58333Z" fill="var(--fill-0, #9CA8AB)"/>
<path d="M12.7971 3.66862C13.9928 2.97826 15.5223 3.3876 16.2126 4.58333C16.9029 5.77906 16.4928 7.30767 15.2971 7.99805C14.1013 8.68829 12.5728 8.27906 11.8824 7.08333C11.1921 5.88774 11.6017 4.35908 12.7971 3.66862Z" fill="var(--fill-0, #9CA8AB)"/>
<path d="M8.27397 0C9.65469 3.34998e-05 10.774 1.11931 10.774 2.5C10.774 3.88069 9.65469 4.99997 8.27397 5C6.89322 5 5.77397 3.88071 5.77397 2.5C5.77397 1.11929 6.89322 0 8.27397 0Z" fill="var(--fill-0, #9CA8AB)"/>
</g>
</svg>
